# xmcd CD database file
#
# Track frame offsets:
#	150
#	23897
#	36547
#	41350
#	62342
#	89990
#	110014
#	120660
#	139685
#	156077
#	176810
#	196339
#	209756
#	226253
#	234322
#
# Disc length: 3565 seconds
#
# Revision: 0
# Processed by: cddbd v1.5.1PL2 Copyright (c) Steve Scherf et al.
# Submitted via: CDex 1.60beta1
#
DISCID=d50deb0f
DTITLE=Klazzbrothers and Cubapercussion - Jazz Meets Cuba
DYEAR=1900
DGENRE=Jazz
TTITLE0=Au Privave (Album Version)
TTITLE1=Conception (Album Version)
TTITLE2=Dynamita (Album Version)
TTITLE3=Elegia (Album Version)
TTITLE4=Girl From Ipanema (Album Version)
TTITLE5=In A Sentimental Mood (Album Version)
TTITLE6=Konga Solo (Album Version)
TTITLE7=Los Amigos (Album Version)
TTITLE8=Mambo Influenciado (Album Version)
TTITLE9=Mondongo (Album Version)
TTITLE10=Samba Zamba (Album Version)
TTITLE11=So What (Album Version)
TTITLE12=Summertime (Album Version)
TTITLE13=Summertime (Reprise)
TTITLE14=Klazzbrothers and Cubapercussion - Take Five (Album Version)
EXTD=
EXTT0=
EXTT1=
EXTT2=
EXTT3=
EXTT4=
EXTT5=
EXTT6=
EXTT7=
EXTT8=
EXTT9=
EXTT10=
EXTT11=
EXTT12=
EXTT13=
EXTT14=
PLAYORDER=
